<svg width="72624" height="26297" viewBox="0 0 72624 26297" fill="none" xmlns="http://www.w3.org/2000/svg">
<path d="M11455.5 9725.1C12141.5 8524.7 13652 5249.1 13908.5 2855.6V2130.6C13858.2 1727.27 13675.2 660.023 12773 295.1C10764.3 -517.352 9702.2 534.602 9399 1205.1C6947.41 6626.6 1782.8 17286.2 918 19060.6C2960.8 18031.8 6323.83 17695.6 7750 17656.1C8699.33 15512.6 10769.5 10925.5 11455.5 9725.1Z" fill="url(#paint0_linear_4207_557)"/>
<path d="M22543 21506.6L13901 2085.6C13717.4 3980.8 12216.3 8114.77 11408 9681.6C11941 10817.6 13559.3 14168.8 15174.5 17797.6C19369.3 18070.4 21686.3 20473.9 22543 21506.6Z" fill="url(#paint1_linear_4207_557)"/>
<path d="M904.87 19054C229.547 20157.7 20.2388 21569 0 22136.7C5026.24 15558.7 24436.9 17987.5 20690.6 25791C22068.9 24874.1 23649.9 23134.9 22387.2 21060.3C18846.9 15243.6 1889.09 17870.5 904.87 19054Z" fill="url(#paint2_linear_4207_557)"/>
<path d="M15.4494 22186.1C-168.551 23986.1 1336.45 25373.4 2111.95 25842.1C297.449 20308.1 9846.5 17565.1 15636.4 18913.6C8260 16880.1 245.449 19936.1 15.4494 22186.1Z" fill="url(#paint3_linear_4207_557)"/>
<path d="M18295.5 25924.6C17878.1 25443.6 15655.5 19004.6 15655.5 19004.6C19354 19456.6 22595 23284.6 21055 25444.6C20031 26580.6 18712.9 26405.6 18295.5 25924.6Z" fill="url(#paint4_linear_4207_557)"/>
<path d="M4130.67 25845.1C4292.5 25731.1 6605.07 19848.7 6605.07 19848.7C9333.5 18604.6 13965.5 18510.6 16376 19094.1C13954.9 18223.3 7850.39 18081.3 3664.62 21125C-691.814 24595.6 2154.65 26332.8 3370.17 26169C3823.47 26107.9 4065.69 25980.9 4130.67 25845.1Z" fill="url(#paint5_radial_4207_557)"/>
<path d="M23875.2 18462.1L25957.4 21419.7C25962.3 21426.5 25962.3 21435.7 25957.5 21442.6L23874.8 24442.2C23865.6 24455.5 23875.1 24473.6 23891.2 24473.6H25595.6C25602.4 24473.6 25608.7 24470.1 25612.4 24464.4L26815.3 22597.5C26823.2 22585.3 26840.9 22585.2 26848.9 22597.3L28072.6 24464.6C28076.3 24470.2 28082.6 24473.6 28089.3 24473.6H29752.4C29768.4 24473.6 29778 24455.7 29769 24442.4L27663.9 21315.8C27659.2 21308.8 27659.4 21299.6 27664.4 21292.7L29766.3 18462.5C29776.1 18449.3 29766.7 18430.6 29750.2 18430.6H28089.2C28082.5 18430.6 28076.3 18433.9 28072.6 18439.5L26848.8 20265.1C26840.8 20277 26823.3 20276.9 26815.4 20265L25612.4 18439.6C25608.7 18434 25602.5 18430.6 25595.7 18430.6H23891.5C23875.3 18430.6 23865.9 18448.9 23875.2 18462.1Z" fill="url(#paint6_linear_4207_557)"/>
<path d="M30553.9 23301.3C28883.3 20728.7 31035.9 17967.2 33644.2 18402.1C36084 18808.9 36226.1 21105.4 36023 21959.5H31448.6C31672.1 22799.8 32631.5 24147.2 34681 22813.5L35677.2 23565.5C34913.9 24344.2 32247.3 25623.9 30553.9 23301.3ZM34075.8 19800.8C33769.5 19567.9 33386.2 19474.2 33007.6 19499.7C32251.1 19550.6 31508.6 20078.7 31435 20933.3L31433.6 20949.6H34682.1L34679.9 20932.6C34610.4 20405.2 34382.3 20033.8 34075.8 19800.8Z" fill="url(#paint7_linear_4207_557)"/>
<path d="M42885.5 20257.6C43009.5 21472.1 42965.5 24473.3 42965.5 24473.3H41409.5V21032.8C41236.5 18852.8 38681 19550.8 38781.5 20877.3V24473.3H37202V18495.8H38490.5H38690C38684.8 18601.3 38690 18856.3 38690 18973.3C38690 19139.3 38705.5 19231.3 38781.5 19219.3C38871 19135.6 38876.5 19026.6 39142.5 18812.4C41097.2 17396.8 42885.5 19201.9 42885.5 20257.6Z" fill="url(#paint8_linear_4207_557)"/>
<path d="M46292 16480.6L44760 16959.1V18283.6H43611V19576.1H44760V22305.1C44760 24769.1 46898.3 24640.1 47967.5 24267.6C47967.5 24187.8 47938.8 23830.3 47824 23039.1C46598.4 23371.1 46292 22688.1 46292 22305.1V19576.1H47967.5V18283.6H46292V16480.6Z" fill="url(#paint9_linear_4207_557)"/>
<rect x="49076" y="18341.6" width="1553" height="6081" fill="url(#paint10_linear_4207_557)"/>
<path d="M49800 17050.1C50046.4 15019.7 51847 14203.1 52716.5 14048.6C51831.2 13847.8 49975.9 12885.6 49767.5 10873.6C49688 11047.1 49767.5 13213.1 46686 14048.6C48573 14608.6 48903 14518.1 49800 17050.1Z" fill="url(#paint11_linear_4207_557)"/>
<path d="M54620.5 18289.6C56305.8 18289.6 57672 19720.5 57672 21485.6C57672 23250.7 56305.8 24681.6 54620.5 24681.6C52935.2 24681.6 51569 23250.7 51569 21485.6C51569 19720.5 52935.2 18289.6 54620.5 18289.6ZM54981 19595.6C53927.8 19595.6 53074 20497.1 53074 21609.1C53074 22721.1 53927.8 23622.6 54981 23622.6C56034.2 23622.6 56888 22721.1 56888 21609.1C56888 20497.1 56034.2 19595.6 54981 19595.6Z" fill="url(#paint12_linear_4207_557)"/>
<rect x="56888" y="18390.6" width="1522" height="6072" fill="url(#paint13_linear_4207_557)"/>
<ellipse cx="60351.5" cy="24082.6" rx="619.5" ry="597" fill="#59319F"/>
<path d="M67003 16527.6L69988.5 24546.6H68253L67801.5 23054.1H64018L63462.5 24546.6H61622.5L64712 16527.6H67003ZM64580.5 21760.1H67182L65912.5 18304.6L64580.5 21760.1Z" fill="url(#paint14_linear_4207_557)"/>
<rect x="70944" y="16527.6" width="1680" height="7935" fill="url(#paint15_linear_4207_557)"/>
<defs>
<linearGradient id="paint0_linear_4207_557" x1="4904" y1="17672.6" x2="11880" y2="987.102" gradientUnits="userSpaceOnUse">
<stop stop-color="#CC03F2"/>
<stop offset="1" stop-color="#41057E"/>
</linearGradient>
<linearGradient id="paint1_linear_4207_557" x1="17123.8" y1="2612.1" x2="17123.8" y2="21064.6" gradientUnits="userSpaceOnUse">
<stop stop-color="#6106A4"/>
<stop offset="0.5" stop-color="#EC27DD"/>
<stop offset="1" stop-color="#FFAA97"/>
</linearGradient>
<linearGradient id="paint2_linear_4207_557" x1="835.327" y1="21344.1" x2="21760.9" y2="21604.2" gradientUnits="userSpaceOnUse">
<stop stop-color="#F98BFF"/>
<stop offset="0.5" stop-color="#F94AE3"/>
<stop offset="1" stop-color="#FFDB53"/>
</linearGradient>
<linearGradient id="paint3_linear_4207_557" x1="7818.22" y1="18283.4" x2="647.448" y2="24781.9" gradientUnits="userSpaceOnUse">
<stop stop-color="#C00AEB"/>
<stop offset="1" stop-color="#AB19E9"/>
</linearGradient>
<linearGradient id="paint4_linear_4207_557" x1="16394" y1="19737.6" x2="20167.5" y2="25566.6" gradientUnits="userSpaceOnUse">
<stop stop-color="#410491"/>
<stop offset="0.634615" stop-color="#AD07B3"/>
<stop offset="1" stop-color="#E54597"/>
</linearGradient>
<radialGradient id="paint5_radial_4207_557" cx="0" cy="0" r="1" gradientTransform="matrix(-6051.21 3386.14 2508.9 4254 8209.57 21924.7)" gradientUnits="userSpaceOnUse">
<stop stop-color="#250446"/>
<stop offset="1" stop-color="#7206B5"/>
</radialGradient>
<linearGradient id="paint6_linear_4207_557" x1="26821.5" y1="18430.6" x2="26821.5" y2="24473.6" gradientUnits="userSpaceOnUse">
<stop stop-color="#521D9A"/>
<stop offset="1" stop-color="#5A1B9D"/>
</linearGradient>
<linearGradient id="paint7_linear_4207_557" x1="30695" y1="19997.6" x2="35452" y2="23554.6" gradientUnits="userSpaceOnUse">
<stop stop-color="#4F1C9B"/>
<stop offset="1" stop-color="#541C9C"/>
</linearGradient>
<linearGradient id="paint8_linear_4207_557" x1="40087.5" y1="18291.6" x2="40087.5" y2="24473.3" gradientUnits="userSpaceOnUse">
<stop stop-color="#5720A1"/>
<stop offset="1" stop-color="#651A99"/>
</linearGradient>
<linearGradient id="paint9_linear_4207_557" x1="45789.2" y1="16480.6" x2="45789.2" y2="24473.8" gradientUnits="userSpaceOnUse">
<stop stop-color="#551C9F"/>
<stop offset="1" stop-color="#78219F"/>
</linearGradient>
<linearGradient id="paint10_linear_4207_557" x1="49852.5" y1="18341.6" x2="49852.5" y2="24422.6" gradientUnits="userSpaceOnUse">
<stop stop-color="#531899"/>
<stop offset="1" stop-color="#7A1F97"/>
</linearGradient>
<linearGradient id="paint11_linear_4207_557" x1="48768" y1="13309.6" x2="50564.5" y2="15348.1" gradientUnits="userSpaceOnUse">
<stop stop-color="#E18FB3"/>
<stop offset="0.677885" stop-color="#832BC4"/>
</linearGradient>
<linearGradient id="paint12_linear_4207_557" x1="54620.5" y1="18289.6" x2="54620.5" y2="24681.6" gradientUnits="userSpaceOnUse">
<stop stop-color="#591EA2"/>
<stop offset="1" stop-color="#A03AAE"/>
</linearGradient>
<linearGradient id="paint13_linear_4207_557" x1="57649" y1="18390.6" x2="57649" y2="24462.6" gradientUnits="userSpaceOnUse">
<stop stop-color="#591EA2"/>
<stop offset="1" stop-color="#A03AAE"/>
</linearGradient>
<linearGradient id="paint14_linear_4207_557" x1="64067" y1="16919.6" x2="67554" y2="24546.6" gradientUnits="userSpaceOnUse">
<stop stop-color="#5F22B0"/>
<stop offset="0.630668" stop-color="#A44A99"/>
<stop offset="1" stop-color="#ED9950"/>
</linearGradient>
<linearGradient id="paint15_linear_4207_557" x1="70944" y1="16527.6" x2="73024.5" y2="24462.6" gradientUnits="userSpaceOnUse">
<stop stop-color="#621AAB"/>
<stop offset="0.600962" stop-color="#CE718A"/>
<stop offset="1" stop-color="#FFC726"/>
</linearGradient>
</defs>
</svg>
