<svg width="278" height="239" viewBox="0 0 278 239" fill="none" xmlns="http://www.w3.org/2000/svg">
<rect width="278" height="239" rx="10" fill="#E3000F"/>
<path d="M151.712 145.497C151.214 147.438 150.67 149.263 150.081 150.945C146.232 150.599 142.258 150.417 138.244 150.417C134.397 150.417 130.629 150.577 126.987 150.884C126.405 149.219 125.868 147.415 125.378 145.497H122.4C122.885 147.474 123.427 149.374 124.026 151.167C118.895 151.7 113.813 152.636 108.828 153.965C105.934 151.471 103.362 148.626 101.17 145.497H97.6584C102.036 152.375 108.078 158.037 115.224 161.96C122.371 165.882 130.392 167.939 138.545 167.939C146.697 167.939 154.718 165.882 161.865 161.96C169.011 158.037 175.053 152.375 179.431 145.497H175.921C173.691 148.679 171.068 151.566 168.113 154.09C163.17 152.75 158.13 151.799 153.038 151.245C153.648 149.429 154.198 147.504 154.691 145.497L151.712 145.497ZM111.678 156.228C116.08 155.187 120.546 154.44 125.047 153.992C126.837 158.556 129.186 162.312 131.511 164.673C124.331 163.445 117.539 160.552 111.678 156.228ZM138.545 165.243C134.864 165.243 131.059 160.914 128.066 153.718C131.393 153.458 134.806 153.32 138.244 153.32C141.891 153.32 145.499 153.474 149.004 153.765C146.015 160.931 142.219 165.243 138.545 165.243ZM165.262 156.338C159.434 160.601 152.697 163.454 145.58 164.673C147.894 162.323 150.235 158.588 152.021 154.052C156.481 154.516 160.905 155.28 165.262 156.338Z" fill="white"/>
<path d="M149.064 110.981V98.351H138.921C135.807 97.9152 132.669 97.6663 129.525 97.6058C117.839 97.6058 109.833 101.883 109.833 111.33C109.833 129.927 136.635 121.82 136.635 128.781C136.635 130.92 134.496 132.113 129.226 132.113C125.248 132.113 121.768 131.267 120.277 130.473V127.787H110.133V140.416H120.277C123.574 140.855 126.894 141.104 130.22 141.162C145.585 141.162 150.706 134.898 150.706 127.24C150.706 108.745 123.658 117.245 123.658 109.838C123.658 108.047 125.497 106.656 130.22 106.656C133.9 106.656 137.43 107.503 138.922 108.296V110.981H149.064Z" fill="white"/>
<path d="M80 130.061V140.502H107.097V130.061H100.286V108.878H107.097V98.437H80V108.878H86.8103V130.061H80Z" fill="white"/>
<path d="M175.92 93.4413H179.431C175.053 86.5639 169.011 80.9018 161.865 76.9792C154.718 73.0565 146.697 71 138.545 71C130.392 71 122.371 73.0565 115.225 76.9792C108.078 80.9018 102.036 86.5639 97.6584 93.4413H101.169C103.399 90.2602 106.022 87.3733 108.975 84.8491C113.919 86.1892 118.959 87.1403 124.051 87.6937C123.441 89.5112 122.891 91.4343 122.398 93.4412H125.377C125.876 91.5009 126.418 89.675 127.009 87.9931C130.857 88.3395 134.832 88.5219 138.846 88.5219C142.693 88.5219 146.459 88.3612 150.103 88.055C150.684 89.7195 151.221 91.5247 151.711 93.4414H154.691C154.204 91.464 153.662 89.5645 153.064 87.7719C158.195 87.2381 163.276 86.3026 168.26 84.9742C171.155 87.4677 173.728 90.312 175.92 93.4413ZM125.069 84.8878C120.609 84.4229 116.185 83.6593 111.828 82.6021C117.655 78.3383 124.392 75.4846 131.509 74.2654C129.195 76.6152 126.853 80.3522 125.069 84.8878ZM138.846 85.6193C135.2 85.6193 131.591 85.4654 128.085 85.1747C131.075 78.0086 134.87 73.696 138.544 73.696C142.226 73.696 146.031 78.0268 149.023 85.2211C145.698 85.4819 142.284 85.6183 138.846 85.6193ZM152.043 84.9464C150.252 80.3813 147.903 76.6252 145.579 74.2654C152.758 75.4943 159.55 78.3869 165.411 82.7116C161.01 83.7527 156.544 84.4993 152.043 84.9464Z" fill="white"/>
<path d="M175.527 97.6058C162.101 97.6058 152.505 105.411 152.505 119.384C152.505 133.356 162.101 141.162 175.527 141.162C188.951 141.162 198.548 133.356 198.548 119.384C198.548 105.411 188.951 97.6058 175.527 97.6058ZM175.527 131.267C170.206 131.267 166.825 127.887 166.825 119.384C166.825 110.883 170.206 107.503 175.527 107.503C180.846 107.503 184.227 110.883 184.227 119.384C184.227 127.887 180.846 131.267 175.527 131.267Z" fill="white"/>
</svg>
